<svg xmlns="http://www.w3.org/2000/svg" width="1600" height="900" viewBox="0 0 1600 900">
  <rect width="1600" height="900" fill="#F8FAFC"/>
  <rect width="258" height="900" fill="#FFFFFF"/>
  <path d="M257.5 0v900M258 57h1342" stroke="#E2E8F0"/>
  <g font-family="Inter, Segoe UI, Arial, sans-serif">
    <g transform="translate(18 14)"><rect width="29" height="29" rx="6" fill="#4F46E5"/><path d="M17 6l-8 12h6l-1 7 8-12h-6l1-7z" fill="none" stroke="#FFF" stroke-width="2"/><text x="40" y="15" fill="#0F172A" font-size="15" font-weight="650">LiteGate</text><text x="40" y="29" fill="#64748B" font-size="10">LiteLLM access portal</text></g>
    <text x="22" y="98" fill="#94A3B8" font-size="10" font-weight="700" letter-spacing="1">WORKSPACE</text>
    <rect x="12" y="110" width="234" height="38" rx="6" fill="#F1F5F9"/><path d="M29 121a6 6 0 1 0 0 12m4-8 7-7m-3 3 3 3" fill="none" stroke="#475569" stroke-width="1.8"/><text x="52" y="135" fill="#0F172A" font-size="14" font-weight="600">My key</text>
    <text x="22" y="183" fill="#94A3B8" font-size="10" font-weight="700" letter-spacing="1">ACCESS CONTROL</text>
    <text x="52" y="218" fill="#475569" font-size="14">Key policies</text><text x="52" y="256" fill="#475569" font-size="14">Local users</text><text x="52" y="294" fill="#475569" font-size="14">Teams</text>
    <text x="22" y="337" fill="#94A3B8" font-size="10" font-weight="700" letter-spacing="1">OPERATIONS</text><text x="52" y="372" fill="#475569" font-size="14">Status</text>
    <circle cx="34" cy="849" r="16" fill="#EEF2FF"/><text x="34" y="854" text-anchor="middle" fill="#4338CA" font-size="10" font-weight="700">AL</text><text x="60" y="846" fill="#334155" font-size="11">alex@example.com</text><text x="60" y="861" fill="#64748B" font-size="10">Admin</text>
    <text x="287" y="35" fill="#94A3B8" font-size="13">LiteGate</text><text x="346" y="35" fill="#CBD5E1" font-size="15">›</text><text x="364" y="35" fill="#334155" font-size="13" font-weight="600">My API access</text><text x="1510" y="35" fill="#64748B" font-size="13">Docs</text>
    <g transform="translate(326 104)">
      <text x="0" y="0" fill="#4F46E5" font-size="13" font-weight="600">Virtual keys</text><text x="0" y="39" fill="#0F172A" font-size="31" font-weight="650">Your API access</text><text x="0" y="68" fill="#64748B" font-size="15">Create and manage your governed LiteLLM key. Secrets are only shown once.</text>
      <g transform="translate(0 112)"><rect width="1208" height="258" rx="10" fill="#FFF" stroke="#E2E8F0"/><rect x="22" y="20" width="38" height="38" rx="7" fill="#EEF2FF" stroke="#E0E7FF"/><text x="78" y="35" fill="#0F172A" font-size="15" font-weight="600">alex-primary</text><text x="78" y="53" fill="#64748B" font-size="12">Virtual key</text><rect x="805" y="18" width="376" height="42" rx="7" fill="#F8FAFC" stroke="#E2E8F0"/><text x="824" y="44" fill="#334155" font-size="13" font-family="ui-monospace, Consolas, monospace">sk-litega••••••••7f3a</text><path d="M0 79h1208M302 79v116M604 79v116M906 79v116M0 195h1208" stroke="#E2E8F0"/>
        <text x="22" y="109" fill="#64748B" font-size="12">Spend</text><text x="22" y="139" fill="#0F172A" font-size="17" font-weight="650">$18.4200</text><text x="324" y="109" fill="#64748B" font-size="12">Budget</text><text x="324" y="139" fill="#0F172A" font-size="17" font-weight="650">$100</text><text x="626" y="109" fill="#64748B" font-size="12">Models</text><text x="626" y="139" fill="#0F172A" font-size="17" font-weight="650">3</text><text x="928" y="109" fill="#64748B" font-size="12">Expires</text><text x="928" y="139" fill="#0F172A" font-size="17" font-weight="650">1/1/2027</text><rect y="195" width="1208" height="63" rx="0" fill="#F8FAFC"/><text x="22" y="232" fill="#64748B" font-size="12">Assigned through  <tspan fill="#334155" font-weight="600">platform-engineering</tspan></text>
      </g>
      <rect x="1046" y="394" width="162" height="42" rx="7" fill="#FFF" stroke="#CBD5E1"/><text x="1127" y="420" text-anchor="middle" fill="#334155" font-size="13" font-weight="600">Regenerate key</text>
      <g transform="translate(0 472)"><rect width="390" height="82" rx="9" fill="#FFF" stroke="#E2E8F0"/><rect x="18" y="20" width="36" height="36" rx="7" fill="#ECFDF5"/><text x="70" y="31" fill="#64748B" font-size="12">Gateway status</text><text x="70" y="53" fill="#0F172A" font-size="15" font-weight="650">Ready</text><g transform="translate(409)"><rect width="390" height="82" rx="9" fill="#FFF" stroke="#E2E8F0"/><rect x="18" y="20" width="36" height="36" rx="7" fill="#EEF2FF"/><text x="70" y="31" fill="#64748B" font-size="12">Model access</text><text x="70" y="53" fill="#0F172A" font-size="15" font-weight="650">3 models</text></g><g transform="translate(818)"><rect width="390" height="82" rx="9" fill="#FFF" stroke="#E2E8F0"/><rect x="18" y="20" width="36" height="36" rx="7" fill="#FFFBEB"/><text x="70" y="31" fill="#64748B" font-size="12">Rate limit</text><text x="70" y="53" fill="#0F172A" font-size="15" font-weight="650">120 RPM</text></g></g>
    </g>
  </g>
</svg>
